<svg width="22" height="21" viewBox="0 0 22 21" fill="none" xmlns="http://www.w3.org/2000/svg">
<path d="M11 1.5C5.753 1.5 1.5 5.753 1.5 11C1.5 16.247 5.753 20.5 11 20.5C16.247 20.5 20.5 16.247 20.5 11C20.5 5.753 16.247 1.5 11 1.5ZM11 18.5C6.858 18.5 3.5 15.142 3.5 11C3.5 6.858 6.858 3.5 11 3.5C15.142 3.5 18.5 6.858 18.5 11C18.5 15.142 15.142 18.5 11 18.5Z" fill="#A9A9A9"/>
<path d="M1.5 11H20.5" stroke="#A9A9A9" stroke-width="1.5" stroke-linecap="round"/>
<path d="M11 1.5V20.5" stroke="#A9A9A9" stroke-width="1.5" stroke-linecap="round"/>
<path d="M5.5 5.5C6.5 7.5 8.5 9 11 9C13.5 9 15.5 7.5 16.5 5.5" stroke="#A9A9A9" stroke-width="1.5" stroke-linecap="round" fill="none"/>
<path d="M5.5 16.5C6.5 14.5 8.5 13 11 13C13.5 13 15.5 14.5 16.5 16.5" stroke="#A9A9A9" stroke-width="1.5" stroke-linecap="round" fill="none"/>
</svg>
